<mxfile host="app.diagrams.net" modified="2023-08-05T15:57:26.541Z" agent="Mozilla/5.0 (X11; Linux x86_64) AppleWebKit/537.36 (KHTML, like Gecko) Chrome/115.0.0.0 Safari/537.36" version="21.3.7" etag="S-l8pz-L-Stb3foygKey" type="github">
  <diagram name="PÃ¡gina-1" id="rn7-sg9sfYs28Mk1zQKb">
    <mxGraphModel>
      <root>
        <mxCell id="0" />
        <mxCell id="1" parent="0" />
      </root>
    </mxGraphModel>
  </diagram>
</mxfile>
